<svg xmlns="http://www.w3.org/2000/svg" xmlns:xlink="http://www.w3.org/1999/xlink" version="1.1" id="Layer_1" x="0px" y="0px" width="100px" height="100px" viewBox="0 0 100 100" enable-background="new 0 0 100 100" xml:space="preserve">
<g id="Captions">
</g>
<path fill="#000000" d="M53.004,56.044c-0.051-0.447-0.319-0.779-0.635-0.779h-4.741c-0.317,0-0.586,0.335-0.633,0.784  c-2.02,19.303-0.021,37.989,0,38.175c0.05,0.45,0.317,0.779,0.633,0.779h4.741c0.317,0,0.586-0.334,0.635-0.785  C55.023,74.916,53.023,56.231,53.004,56.044z"/>
<g>
	<path fill="#000000" d="M57.672,9.248c-1.459-2.228-3.623-3.523-6.432-3.877c-0.35-0.201-0.726-0.323-1.127-0.361V4.997   C50.074,4.998,50.037,4.999,50,5.002c-0.037-0.003-0.073-0.004-0.112-0.005V5.01c-0.403,0.038-0.779,0.16-1.129,0.361   c-2.81,0.354-4.972,1.649-6.431,3.877c-3.321,5.073-3.048,14.802,0.812,28.92c1.88,6.879,4.196,13.165,5.574,16.69h2.573   c1.377-3.525,3.692-9.811,5.573-16.69C60.719,24.05,60.993,14.321,57.672,9.248z M42.999,9.688c1.114-1.7,2.687-2.802,4.688-3.305   c-4.829,6.532-0.477,36.112,1.341,47.052C45.303,43.663,36.901,18.999,42.999,9.688z M48.433,6.702   c0.194-0.237,0.4-0.416,0.617-0.559C49.36,6.109,49.672,6.08,50,6.071c0.328,0.009,0.641,0.039,0.951,0.072   c0.216,0.144,0.422,0.322,0.616,0.559c4.936,6.041,0.093,37.75-1.567,47.661C48.338,44.453,43.497,12.743,48.433,6.702z    M50.975,53.431c1.818-10.944,6.167-40.516,1.34-47.047c2.002,0.503,3.574,1.605,4.687,3.305   C63.097,18.998,54.7,43.655,50.975,53.431z"/>
</g>
</svg>